<?xml version="1.0" encoding="UTF-8" standalone="no"?>
<!-- Svg Vector Icons : http://www.onlinewebfonts.com/icon -->

<svg
   version="1.1"
   x="0px"
   y="0px"
   viewBox="0 0 256 256"
   enable-background="new 0 0 256 256"
   xml:space="preserve"
   id="svg42"
   sodipodi:docname="qr-login-key.svg"
   inkscape:version="1.2.2 (b0a8486541, 2022-12-01)"
   xmlns:inkscape="http://www.inkscape.org/namespaces/inkscape"
   xmlns:sodipodi="http://sodipodi.sourceforge.net/DTD/sodipodi-0.dtd"
   xmlns="http://www.w3.org/2000/svg"
   xmlns:svg="http://www.w3.org/2000/svg"><defs
   id="defs46" /><sodipodi:namedview
   id="namedview44"
   pagecolor="#ffffff"
   bordercolor="#000000"
   borderopacity="0.25"
   inkscape:showpageshadow="2"
   inkscape:pageopacity="0.0"
   inkscape:pagecheckerboard="0"
   inkscape:deskcolor="#d1d1d1"
   showgrid="false"
   inkscape:zoom="4.0117188"
   inkscape:cx="308.96981"
   inkscape:cy="128.74781"
   inkscape:window-width="752"
   inkscape:window-height="1390"
   inkscape:window-x="0"
   inkscape:window-y="0"
   inkscape:window-maximized="1"
   inkscape:current-layer="svg42" />
<metadata
   id="metadata2"> Svg Vector Icons : http://www.onlinewebfonts.com/icon </metadata>
<g
   id="g40"
   style="fill:#ffffff"><g
     id="g38"
     style="fill:#ffffff"><g
       id="g6"
       style="fill:#ffffff"><path
         fill="#000000"
         d="M 218.4,29.1 C 188.9,3.6 144.2,3.5 114.7,29 92.3,48.4 83.3,76.9 88.3,103.6 c 1.3,7.4 -0.8,15 -6.1,20.3 l -64.5,64.3 c -10.3,10.3 -10.3,27 0,37.1 L 30.6,238 c 9.7,9.7 26.6,11.2 35,1.3 0.8,-0.9 1.3,-2.5 1.3,-3.8 v -16.4 c 0,-3.2 2.5,-5.7 5.7,-5.7 H 86 c 3.2,0 5.7,-2.7 5.7,-5.7 v -11.4 c 0,-3.2 2.5,-5.7 5.7,-5.7 h 13.3 c 3.2,0 5.7,-2.7 5.7,-5.7 v -15.6 c 0,-3 2.5,-5.7 5.5,-5.7 18.3,-0.4 35.8,5.3 54,4.2 17.7,-1.2 34.2,-9.7 46.6,-22.1 32.6,-32.5 31.3,-85.9 -4.1,-116.6 z m -28.7,83.6 c -13.3,13.3 -35,13.3 -48.5,0 -13.3,-13.3 -13.3,-35 0,-48.5 13.3,-13.3 35,-13.3 48.5,0 13.3,13.5 13.3,35.1 0,48.5 z"
         id="path4"
         style="fill:#ffffff" /></g><g
       id="g8"
       style="fill:#ffffff" /><g
       id="g10"
       style="fill:#ffffff" /><g
       id="g12"
       style="fill:#ffffff" /><g
       id="g14"
       style="fill:#ffffff" /><g
       id="g16"
       style="fill:#ffffff" /><g
       id="g18"
       style="fill:#ffffff" /><g
       id="g20"
       style="fill:#ffffff" /><g
       id="g22"
       style="fill:#ffffff" /><g
       id="g24"
       style="fill:#ffffff" /><g
       id="g26"
       style="fill:#ffffff" /><g
       id="g28"
       style="fill:#ffffff" /><g
       id="g30"
       style="fill:#ffffff" /><g
       id="g32"
       style="fill:#ffffff" /><g
       id="g34"
       style="fill:#ffffff" /><g
       id="g36"
       style="fill:#ffffff" /></g></g>
</svg>
