<?xml version="1.0" encoding="UTF-8" standalone="no"?>
<!-- Created with Inkscape (http://www.inkscape.org/) -->

<svg
   width="64"
   height="64"
   viewBox="0 0 16.933333 16.933333"
   version="1.1"
   id="svg1"
   inkscape:version="1.2.2 (b0a8486541, 2022-12-01)"
   sodipodi:docname="eta-register.svg"
   xmlns:inkscape="http://www.inkscape.org/namespaces/inkscape"
   xmlns:sodipodi="http://sodipodi.sourceforge.net/DTD/sodipodi-0.dtd"
   xmlns="http://www.w3.org/2000/svg"
   xmlns:svg="http://www.w3.org/2000/svg">
  <sodipodi:namedview
     id="namedview1"
     pagecolor="#ffffff"
     bordercolor="#000000"
     borderopacity="0.25"
     inkscape:showpageshadow="2"
     inkscape:pageopacity="0.0"
     inkscape:pagecheckerboard="0"
     inkscape:deskcolor="#d1d1d1"
     inkscape:document-units="px"
     inkscape:zoom="2.8284271"
     inkscape:cx="12.904699"
     inkscape:cy="30.759145"
     inkscape:window-width="1920"
     inkscape:window-height="1005"
     inkscape:window-x="0"
     inkscape:window-y="0"
     inkscape:window-maximized="1"
     inkscape:current-layer="g324"
     showgrid="false" />
  <defs
     id="defs1">
    <linearGradient
       id="SVGID_00000129901450951144020920000007753056098303935627_"
       gradientUnits="userSpaceOnUse"
       x1="-434.02811"
       y1="-74.135002"
       x2="-434.02811"
       y2="-49.8008"
       gradientTransform="matrix(1,0,0,-1,0,-121.5918)">
      <stop
         offset="0"
         style="stop-color:#27AFD9"
         id="stop80" />
      <stop
         offset="1"
         style="stop-color:#42BDD9"
         id="stop81" />
    </linearGradient>
  </defs>
  <g
     inkscape:label="Layer 1"
     inkscape:groupmode="layer"
     id="layer1">
    <g
       id="g2"
       transform="matrix(1.3559798,0,0,1.3559798,-3.0139622,-3.0139622)">
      <g
         id="g1">
        <path
           class="st0"
           d="M 12.594167,2.4077082 H 4.3656252 c -0.9789583,0.079375 -1.74625,0.873125 -1.825625,1.825625 v 8.4137498 c 0.079375,1.031875 0.873125,1.799167 1.8785417,1.878542 h 0.052917 l 8.0697911,-0.02646 c 1.031875,-0.05292 1.852083,-0.899583 1.852083,-1.931458 V 4.2862498 c 0,-1.0054166 -0.767291,-1.825625 -1.799166,-1.8785416 z"
           id="path2"
           style="opacity:0.3;fill:#ffffff;stroke-width:0.264583;enable-background:new" />
        <path
           class="st1"
           d="m 4.4714585,14.393333 h -0.052917 c -0.9260417,-0.05292 -1.666875,-0.79375 -1.74625,-1.74625 v -0.05292 -8.3079162 -0.052917 c 0.052917,-0.8995834 0.79375,-1.6139584 1.6933333,-1.6933334 h 0.052917 8.1756252 c 0.926041,0.052917 1.666875,0.8202084 1.666875,1.74625 v 8.2814586 c 0,0.9525 -0.740834,1.74625 -1.719792,1.799167 h -0.02646 z"
           id="path3"
           style="fill:#ffffff;stroke-width:0.264583;enable-background:new" />
        <path
           class="st12"
           d="m 4.4714585,14.393333 h -0.052917 c -0.9260417,-0.05292 -1.666875,-0.79375 -1.74625,-1.74625 v -0.05292 -8.3079162 -0.052917 c 0.052917,-0.8995834 0.79375,-1.6139584 1.6933333,-1.6933334 h 0.052917 8.1756252 c 0.926041,0.052917 1.666875,0.8202084 1.666875,1.74625 v 8.2814586 c 0,0.9525 -0.740834,1.74625 -1.719792,1.799167 h -0.02646 z"
           id="path74"
           style="opacity:0.3;fill:#bbd8e8;stroke-width:0.264583;enable-background:new" />
        <g
           id="g75"
           transform="matrix(0.26458333,0,0,0.26458333,-38.179374,24.817916)">
          <path
             class="st2"
             d="M 161.2,-39.4 H 161 c -3.5,-0.2 -6.3,-3 -6.6,-6.6 v -0.2 -31.4 -0.2 c 0.2,-3.4 3,-6.1 6.4,-6.4 h 0.2 30.9 c 3.5,0.2 6.3,3.1 6.3,6.6 v 31.3 c 0,3.6 -2.8,6.6 -6.5,6.8 h -0.1 z m 0,-2.1 h 30.4 c 2.5,-0.2 4.5,-2.2 4.5,-4.7 v -31.3 c 0,-2.4 -1.9,-4.3 -4.3,-4.5 H 191.7 161 c -2.3,0.2 -4.2,2 -4.4,4.4 v 0.1 31.5 c 0.1,2.4 2.1,4.3 4.6,4.5 z"
             id="path75"
             style="fill:#2f3536" />
        </g>
        <g
           id="g4886"
           transform="matrix(0.95,0,0,0.95,0.42333332,0.42333332)">
          <g
             id="g324"
             transform="matrix(1.0605,0,0,1.0605,-0.51223332,-0.51223332)">
            <path
               inkscape:connector-curvature="0"
               id="path3026"
               d="M 7.3422283,12.780202 C 6.8621172,12.715542 6.3257169,12.597986 5.9917059,12.484233 5.292945,12.24626 4.7200251,11.859033 4.5318956,11.497571 c -0.093453,-0.179555 -0.097041,-0.210094 -0.097041,-0.825922 0,-0.357609 0.014965,-0.639475 0.033951,-0.639475 0.018672,0 0.077506,0.07116 0.1307403,0.158133 0.491674,0.803277 2.2409727,1.337066 4.149477,1.26619 1.7660561,-0.06558 3.1663531,-0.574438 3.5489101,-1.289629 0.05019,-0.09384 0.107093,-0.1706121 0.126444,-0.1706121 0.06377,0 0.08549,0.2481411 0.06859,0.7832911 -0.01512,0.478703 -0.02563,0.544408 -0.113042,0.707385 -0.305092,0.568804 -1.183477,1.008608 -2.4842307,1.243845 -0.5442822,0.09843 -1.9828516,0.126276 -2.5534614,0.04942 z M 7.5485575,11.033584 C 6.3898211,10.922127 5.3162611,10.543606 4.8102401,10.068093 4.4763706,9.7543511 4.4555993,9.6910599 4.4418652,8.9456507 c -0.0079,-0.4286852 0.00116,-0.6375471 0.027665,-0.6375471 0.021677,0 0.081423,0.063719 0.1327715,0.1415973 0.3259101,0.4943067 1.1755405,0.9080457 2.2860123,1.1132051 2.2140558,0.4090469 4.804789,-0.1357137 5.393261,-1.1340595 0.06244,-0.1059185 0.12775,-0.1925789 0.145151,-0.1925789 0.05713,0 0.08359,0.3217246 0.06639,0.8071028 -0.01517,0.4280965 -0.02741,0.4978025 -0.118979,0.6769898 C 11.901954,10.6444 9.7084434,11.241337 7.548554,11.033584 Z M 7.6611012,9.2737881 C 6.174542,9.1480493 4.9094976,8.6174753 4.5556021,7.9713064 4.4609559,7.7984938 4.4540143,7.7529938 4.4415859,7.2239536 4.4254109,6.53542 4.4495159,6.4697093 4.6231923,6.7288472 c 0.3158808,0.4713109 1.0587734,0.83354 2.1345344,1.0407845 2.3604092,0.4547305 5.0008683,-0.1030238 5.5702213,-1.1766191 0.03405,-0.064203 0.07573,-0.1167338 0.09262,-0.1167338 0.04773,0 0.08218,0.9691109 0.04271,1.2013257 -0.179389,1.055307 -2.414293,1.7981604 -4.8021838,1.5961836 z M 7.844678,7.5142366 C 6.2980733,7.4200866 4.8875156,6.8434464 4.560847,6.1717935 4.1132436,5.2514907 5.4648259,4.3529156 7.6191245,4.138554 8.2254828,4.07822 9.4008472,4.114251 9.9331998,4.209497 c 0.6252062,0.1118568 1.0406282,0.2371404 1.5066762,0.4543848 0.68288,0.3183202 1.023081,0.6982263 1.023081,1.1424878 0,1.0593538 -2.158561,1.8576031 -4.618279,1.707867 z"
               style="fill:#33b5d9;fill-opacity:1;stroke-width:0.0367076" />
          </g>
        </g>
      </g>
    </g>
  </g>
</svg>
